<?xml version="1.0" encoding="UTF-8" standalone="no"?>
<svg
   xmlns:dc="http://purl.org/dc/elements/1.1/"
   xmlns:cc="http://creativecommons.org/ns#"
   xmlns:rdf="http://www.w3.org/1999/02/22-rdf-syntax-ns#"
   xmlns:svg="http://www.w3.org/2000/svg"
   xmlns="http://www.w3.org/2000/svg"
   xmlns:sodipodi="http://sodipodi.sourceforge.net/DTD/sodipodi-0.dtd"
   xmlns:inkscape="http://www.inkscape.org/namespaces/inkscape"
   inkscape:version="1.0 (4035a4fb49, 2020-05-01)"
   height="104.1522"
   width="106.84673"
   sodipodi:docname="ghost_host_ghost.svg"
   id="svg54"
   version="1.1"
   viewBox="0 0 106.84673 104.1522">
  <metadata
     id="metadata58">
    <rdf:RDF>
      <cc:Work
         rdf:about="">
        <dc:format>image/svg+xml</dc:format>
        <dc:type
           rdf:resource="http://purl.org/dc/dcmitype/StillImage" />
      </cc:Work>
    </rdf:RDF>
  </metadata>
  <sodipodi:namedview
     inkscape:current-layer="Layer_2"
     inkscape:window-maximized="1"
     inkscape:window-y="-11"
     inkscape:window-x="-11"
     inkscape:cy="59.964761"
     inkscape:cx="53.299314"
     inkscape:zoom="8.4049028"
     showgrid="false"
     id="namedview56"
     inkscape:window-height="2080"
     inkscape:window-width="3840"
     inkscape:pageshadow="2"
     inkscape:pageopacity="0"
     guidetolerance="10"
     gridtolerance="10"
     objecttolerance="10"
     borderopacity="1"
     bordercolor="#666666"
     pagecolor="#ffffff" />
  <defs
     id="defs4">
    <style
       id="style2">.cls-1{fill:#231f20;}.cls-2{fill:#fff;}.cls-2,.cls-4{stroke:#231f20;stroke-miterlimit:10;stroke-width:3px;}.cls-3{fill:#00aadb;}.cls-4{fill:none;}</style>
  </defs>
  <g
     transform="translate(-7.7116337,-2.3892145e-4)"
     data-name="Layer 2"
     id="Layer_2">
    <g
       data-name="Layer 1"
       id="Layer_1-2">
      <path
         id="path32"
         d="m 109.65,52.57 c -4.57,1.93 -6.77,4.41 -7.93,6.37 -1.28,2.16 -1.16,3.44 -2.71,5.42 -2.35,3 -5.11,3.26 -7.24,4.53 -6.3,3.73 -2.28,13.42 -7.24,22.1 -4.2,7.35 -13.58,11.78 -22.3,11.66 -8.72,-0.12 -18,-4.84 -21.89,-12.28 -3.89,-7.44 -0.17,-13.63 -5.54,-18.47 -3.6,-3.25 -7,-2 -9.65,-6 -2.23,-3.47 -1,-6.31 -3.57,-9.42 a 11.84,11.84 0 0 0 -7.31,-3.81 20.43,20.43 0 0 1 5.86,-12.58 c 7.45,-7.26 17.7,-5.33 18.63,-5.14 a 24.7,24.7 0 0 1 0,-6.6 24.39,24.39 0 0 1 5.35,-12.2 22.46,22.46 0 0 1 17.22,-8.58 22.36,22.36 0 0 1 16.88,8.28 24.43,24.43 0 0 1 5.57,12.51 24,24 0 0 1 0,6.56 c 0.55,-0.22 10.11,-3.81 18.35,2.36 7.43,5.56 7.52,14.35 7.52,15.29 z"
         class="cls-2" />
      <ellipse
         id="ellipse34"
         ry="5.73"
         rx="2.5599999"
         cy="26.379999"
         cx="54.240002"
         class="cls-1" />
      <ellipse
         id="ellipse36"
         ry="5.73"
         rx="2.5599999"
         cy="26.379999"
         cx="66.75"
         class="cls-1" />
      <path
         id="path38"
         d="M 34.78,30 C 28.71,27.42 22.71,24.61 16.6,22.47 a 28.33,28.33 0 0 0 -4.47,-1.27 6.14,6.14 0 0 0 -1,-0.1 0.91,0.91 0 1 1 -0.25,0 1,1 0 0 0 0.49,-0.51 1.26,1.26 0 0 0 0.08,-0.28 c 0,0.06 0.13,0.32 0.27,0.58 a 25.4,25.4 0 0 0 2.63,3.58 c 1,1.2 2.12,2.38 3.24,3.54 4.53,4.6 9.26,9.12 14.12,13.49 4.86,4.37 9.7,8.79 14.66,13.07 9.86,8.62 19.77,17.22 29.86,25.57 2.51,2.1 5.07,4.13 7.62,6.18 2.55,2.05 5.13,4 7.78,5.91 a 47.58,47.58 0 0 0 4,2.63 10.58,10.58 0 0 0 2,0.91 c 0.28,0.12 0.58,0 0.35,0.17 -0.08,0.08 0,0.16 0,0.06 a 1.58,1.58 0 0 0 0,-0.38 9.66,9.66 0 0 0 -0.7,-2.16 C 96.97,92.73 96.6,92 96.22,91.27 95.48,89.81 94.65,88.39 93.83,86.95 95,88.18 96,89.46 97,90.78 c 0.5,0.67 1,1.35 1.43,2.07 a 10.65,10.65 0 0 1 1.18,2.39 3.45,3.45 0 0 1 0.13,0.85 1.71,1.71 0 0 1 -0.45,1.18 1.83,1.83 0 0 1 -1.15,0.5 3.93,3.93 0 0 1 -0.86,0 11.5,11.5 0 0 1 -2.62,-0.8 48.45,48.45 0 0 1 -4.58,-2.22 179.64,179.64 0 0 1 -16.67,-10.91 c -10.74,-7.75 -21,-16 -31,-24.77 -10,-8.77 -19.59,-17.76 -28.29,-28 -1.08,-1.29 -2.14,-2.6 -3.16,-4 A 23.42,23.42 0 0 1 8.19,22.5 6.37,6.37 0 0 1 7.73,20.73 a 3.25,3.25 0 0 1 0.19,-1.49 2.73,2.73 0 0 1 1.31,-1.4 3.93,3.93 0 0 1 2.17,-0.31 8.7,8.7 0 0 1 1.47,0.29 30.73,30.73 0 0 1 4.86,1.91 A 141.76,141.76 0 0 1 34.78,30 Z"
         class="cls-3" />
      <path
         id="path40"
         d="m 42.12,15.12 a 24.39,24.39 0 0 0 -5.35,12.2 8.69,8.69 0 0 1 -0.89,0.05 7.72,7.72 0 1 1 6.24,-12.25 z"
         class="cls-1" />
      <path
         id="path42"
         d="m 94,19.66 a 7.71,7.71 0 0 1 -7.71,7.71 H 85.83 A 24.43,24.43 0 0 0 80.26,14.86 7.71,7.71 0 0 1 94,19.66 Z"
         class="cls-1" />
      <path
         id="path44"
         d="m 87.54,30 a 141.76,141.76 0 0 1 17,-10.24 30.73,30.73 0 0 1 4.86,-1.91 8.7,8.7 0 0 1 1.47,-0.29 3.93,3.93 0 0 1 2.17,0.31 2.73,2.73 0 0 1 1.31,1.4 3.25,3.25 0 0 1 0.19,1.49 6.37,6.37 0 0 1 -0.46,1.77 23.42,23.42 0 0 1 -2.81,4.63 c -1,1.38 -2.08,2.69 -3.16,4 -8.7,10.2 -18.43,19.14 -28.29,28 -9.86,8.86 -20.23,17 -31,24.77 a 179.64,179.64 0 0 1 -16.6,10.79 48.45,48.45 0 0 1 -4.58,2.22 11.5,11.5 0 0 1 -2.62,0.8 3.93,3.93 0 0 1 -0.86,0 1.81,1.81 0 0 1 -1.15,-0.5 1.71,1.71 0 0 1 -0.45,-1.18 3.48,3.48 0 0 1 0.12,-0.85 11.11,11.11 0 0 1 1.19,-2.39 c 0.45,-0.72 0.93,-1.4 1.43,-2.07 1,-1.32 2.05,-2.6 3.16,-3.84 -0.82,1.44 -1.65,2.86 -2.39,4.32 -0.38,0.73 -0.75,1.46 -1.06,2.19 a 9.66,9.66 0 0 0 -0.7,2.16 1.58,1.58 0 0 0 0,0.38 c 0,0.1 0.06,0 0,-0.06 -0.06,-0.06 0.08,-0.05 0.36,-0.17 a 10.87,10.87 0 0 0 2,-0.91 47.58,47.58 0 0 0 4,-2.63 c 2.65,-1.87 5.23,-3.86 7.78,-5.91 2.55,-2.05 5.11,-4.08 7.62,-6.18 10.09,-8.35 20,-16.95 29.86,-25.57 5,-4.28 9.83,-8.66 14.66,-13.07 4.83,-4.41 9.57,-8.86 14.1,-13.46 1.12,-1.16 2.22,-2.34 3.24,-3.54 a 25.4,25.4 0 0 0 2.63,-3.58 c 0.14,-0.26 0.24,-0.52 0.27,-0.58 a 1.26,1.26 0 0 0 0.08,0.28 1,1 0 0 0 0.49,0.51 0.91,0.91 0 1 1 -0.25,0 6.14,6.14 0 0 0 -1,0.1 28.74,28.74 0 0 0 -4.48,1.27 C 99.61,24.58 93.61,27.39 87.54,30 Z"
         class="cls-3" />
      <ellipse
         id="ellipse46"
         ry="2.04"
         rx="2.6900001"
         cy="38.619999"
         cx="63.59"
         class="cls-1" />
      <path
         id="path48"
         d="m 81.48,28.9 a 13.66,13.66 0 0 1 -2,5.21 A 12.47,12.47 0 0 1 75.32,38 14.17,14.17 0 0 1 69.84,39.83 18,18 0 0 1 64,39.69 l 0.51,-1.93 a 16.7,16.7 0 0 0 5.21,0.6 12.92,12.92 0 0 0 5.14,-1.22 11.87,11.87 0 0 0 4.2,-3.32 13.58,13.58 0 0 0 2.42,-4.92 z"
         class="cls-1" />
      <path
         id="path50"
         d="M 35.15,19.66 V 9.06 A 48.69,48.69 0 0 1 87.08,8.94 v 10.72"
         class="cls-4" />
    </g>
  </g>
</svg>
