<svg xmlns="http://www.w3.org/2000/svg" viewBox="0 0 376.68 104.15"><defs><style>.cls-1{fill:#fff;}.cls-1,.cls-4{stroke:#231f20;stroke-miterlimit:10;stroke-width:3px;}.cls-2{fill:#231f20;}.cls-3{fill:#00aadb;}.cls-4{fill:none;}</style></defs><g id="Layer_2" data-name="Layer 2"><g id="Layer_1-2" data-name="Layer 1"><path class="cls-1" d="M101.94,52.57C97.37,54.5,95.17,57,94,58.94c-1.28,2.16-1.16,3.44-2.71,5.42-2.35,3-5.11,3.26-7.24,4.53-6.3,3.73-2.28,13.42-7.24,22.1-4.2,7.35-13.58,11.78-22.3,11.66s-18-4.84-21.89-12.28-.17-13.63-5.54-18.47c-3.6-3.25-7-2-9.65-6-2.23-3.47-1-6.31-3.57-9.42a11.84,11.84,0,0,0-7.31-3.81,20.43,20.43,0,0,1,5.86-12.58c7.45-7.26,17.7-5.33,18.63-5.14a24.7,24.7,0,0,1,0-6.6,24.39,24.39,0,0,1,5.35-12.2A22.46,22.46,0,0,1,53.62,7.57,22.36,22.36,0,0,1,70.5,15.85a24.43,24.43,0,0,1,5.57,12.51,24,24,0,0,1,0,6.56c.55-.22,10.11-3.81,18.35,2.36C101.85,42.84,101.94,51.63,101.94,52.57Z"/><ellipse class="cls-2" cx="46.53" cy="26.38" rx="2.56" ry="5.73"/><ellipse class="cls-2" cx="59.04" cy="26.38" rx="2.56" ry="5.73"/><path class="cls-3" d="M27.07,30C21,27.39,15,24.58,8.89,22.44a28.43,28.43,0,0,0-4.48-1.27,5.91,5.91,0,0,0-1-.1c-.26,0-.49.1-.24,0a1,1,0,0,0,.48-.51c.09-.24.08-.27.09-.28a4.51,4.51,0,0,0,.26.58,24.75,24.75,0,0,0,2.64,3.58c1,1.2,2.11,2.38,3.23,3.54,4.54,4.6,9.27,9.12,14.13,13.49s9.69,8.79,14.65,13.07c9.86,8.62,19.77,17.22,29.86,25.57,2.51,2.1,5.08,4.13,7.62,6.18s5.14,4,7.78,5.91a47.73,47.73,0,0,0,4,2.63,10.58,10.58,0,0,0,2,.91c.28.12.57,0,.35.17s0,.16,0,.06a1.49,1.49,0,0,0,0-.38,9.66,9.66,0,0,0-.7-2.16c-.32-.73-.69-1.46-1.06-2.19-.74-1.46-1.57-2.88-2.39-4.32,1.1,1.24,2.14,2.52,3.16,3.84.49.67,1,1.35,1.43,2.07a11.09,11.09,0,0,1,1.18,2.39,3.45,3.45,0,0,1,.13.85,1.68,1.68,0,0,1-.46,1.18,1.79,1.79,0,0,1-1.15.5,4,4,0,0,1-.86,0,11.65,11.65,0,0,1-2.62-.8,48.27,48.27,0,0,1-4.57-2.22,179.8,179.8,0,0,1-16.7-10.88c-10.73-7.75-21-16-31-24.77s-19.59-17.76-28.29-28c-1.08-1.29-2.13-2.6-3.15-4A23,23,0,0,1,.48,22.5,6.34,6.34,0,0,1,0,20.73a3.28,3.28,0,0,1,.2-1.49,2.71,2.71,0,0,1,1.3-1.4,4,4,0,0,1,2.17-.31,8.62,8.62,0,0,1,1.48.29A30.23,30.23,0,0,1,10,19.73,141.88,141.88,0,0,1,27.07,30Z"/><path class="cls-2" d="M34.41,15.12a24.39,24.39,0,0,0-5.35,12.2,8.69,8.69,0,0,1-.89.05,7.72,7.72,0,1,1,6.24-12.25Z"/><path class="cls-2" d="M86.24,19.66a7.71,7.71,0,0,1-7.71,7.71h-.46A24.43,24.43,0,0,0,72.5,14.85a7.71,7.71,0,0,1,13.74,4.81Z"/><path class="cls-3" d="M79.82,30A141.88,141.88,0,0,1,96.88,19.73a30.23,30.23,0,0,1,4.85-1.91,8.62,8.62,0,0,1,1.48-.29,3.94,3.94,0,0,1,2.17.31,2.71,2.71,0,0,1,1.3,1.4,3.28,3.28,0,0,1,.2,1.49,6.34,6.34,0,0,1-.47,1.77,23,23,0,0,1-2.81,4.63c-1,1.38-2.07,2.69-3.15,4-8.7,10.2-18.44,19.14-28.29,28s-20.23,17-31,24.77A179.8,179.8,0,0,1,24.5,94.72a48.27,48.27,0,0,1-4.57,2.22,11.5,11.5,0,0,1-2.62.8,4,4,0,0,1-.86,0,1.79,1.79,0,0,1-1.15-.5,1.68,1.68,0,0,1-.46-1.18,3.45,3.45,0,0,1,.13-.85,10.67,10.67,0,0,1,1.19-2.39c.45-.72.93-1.4,1.43-2.07,1-1.32,2.05-2.6,3.15-3.84-.82,1.44-1.65,2.86-2.39,4.32-.37.73-.74,1.46-1.06,2.19a9.66,9.66,0,0,0-.7,2.16,1.49,1.49,0,0,0,0,.38c0,.1.06,0,0-.06s.07-.05.36-.17a10.8,10.8,0,0,0,2-.91,47.73,47.73,0,0,0,4-2.63c2.64-1.87,5.23-3.86,7.78-5.91s5.11-4.08,7.62-6.18c10.09-8.35,20-16.95,29.86-25.57,5-4.28,9.83-8.66,14.65-13.07S92.44,32.6,97,28c1.12-1.16,2.21-2.34,3.24-3.54a25.4,25.4,0,0,0,2.63-3.58,4.51,4.51,0,0,0,.26-.58s0,0,.09.28a.94.94,0,0,0,.49.51.91.91,0,1,1-.25,0,5.91,5.91,0,0,0-1,.1A28.43,28.43,0,0,0,98,22.44C91.9,24.58,85.9,27.39,79.82,30Z"/><ellipse class="cls-2" cx="55.88" cy="38.62" rx="2.69" ry="2.04"/><path class="cls-2" d="M73.76,28.9a13.64,13.64,0,0,1-2,5.21A12.57,12.57,0,0,1,67.61,38a14.22,14.22,0,0,1-5.48,1.83,18,18,0,0,1-5.85-.16l.5-1.93a16.73,16.73,0,0,0,5.21.6,12.93,12.93,0,0,0,5.15-1.22,11.84,11.84,0,0,0,4.19-3.32A13.27,13.27,0,0,0,73.76,28.9Z"/><path class="cls-4" d="M27.43,19.66V9.06a48.71,48.71,0,0,1,51.94-.12V19.66"/><path class="cls-2" d="M106,58.59a13.57,13.57,0,0,1,13.69-13.66,13.43,13.43,0,0,1,13.06,9.72l-7.46,0a6.16,6.16,0,0,0-5.6-3.3A7.3,7.3,0,0,0,119.6,66a6.43,6.43,0,0,0,6.11-4H117.9v-4.8h15.27A13.64,13.64,0,1,1,106,58.59Z"/><path class="cls-2" d="M136.3,45.41h6.43v9.92h6.5V45.41h6.46V71.8h-6.46V61.5h-6.5V71.8H136.3Z"/><path class="cls-2" d="M172.53,72.29a13.68,13.68,0,1,1,13.66-13.7A13.59,13.59,0,0,1,172.53,72.29Zm0-20.9a7.22,7.22,0,1,0,7.2,7.2A7.11,7.11,0,0,0,172.53,51.39Z"/><path class="cls-2" d="M186.67,65.69c1.83,0,2.79-.92,2.79-3V54.43c0-5.89,3.87-9.25,9.27-9.31v6.46c-1.85,0-2.84,1-2.84,3v8.16c0,5.85-3.84,9.47-9.22,9.47Z"/><path class="cls-2" d="M205.2,51.52h-5.28V45.41h17v6.11h-5.31V71.8H205.2Z"/><path class="cls-2" d="M228,45.41h6.43v9.92h6.5V45.41h6.46V71.8h-6.46V61.5h-6.5V71.8H228Z"/><path class="cls-2" d="M264,72.29a13.68,13.68,0,1,1,13.67-13.7A13.58,13.58,0,0,1,264,72.29Zm0-20.9a7.22,7.22,0,1,0,7.2,7.2A7.11,7.11,0,0,0,264,51.39Z"/><path class="cls-2" d="M278.16,65.69c1.82,0,2.78-.92,2.78-3V54.43c0-5.89,3.87-9.25,9.28-9.31v6.46c-1.86,0-2.85,1-2.85,3v8.16c0,5.85-3.84,9.47-9.21,9.47Z"/><path class="cls-2" d="M296.68,51.52h-5.27V45.41h17v6.11h-5.31V71.8h-6.44Z"/><path class="cls-2" d="M319.44,45.5h6.46V71.8h-6.46Z"/><path class="cls-2" d="M329.84,45.44h6.49L344,60V45.44h6.46V71.8h-6.39L336.3,57.09V71.8h-6.46Z"/><path class="cls-2" d="M353.48,58.62a13.56,13.56,0,0,1,13.7-13.44v6.47a7,7,0,1,0,0,13.95V72A13.53,13.53,0,0,1,353.48,58.62Z"/><path class="cls-2" d="M373,72.09a3.71,3.71,0,1,1,3.71-3.71A3.63,3.63,0,0,1,373,72.09Z"/></g></g></svg>