<svg xmlns="http://www.w3.org/2000/svg" viewBox="0 0 126.9 119.93"><defs><style>.cls-1{fill:#231f20;}.cls-2{fill:#fff;}.cls-2,.cls-4{stroke:#231f20;stroke-miterlimit:10;stroke-width:3px;}.cls-3{fill:#00aadb;}.cls-4{fill:none;}</style></defs><g id="Layer_2" data-name="Layer 2"><g id="Layer_1-2" data-name="Layer 1"><path class="cls-1" d="M0,113.51a6.37,6.37,0,0,1,6.42-6.41,6.3,6.3,0,0,1,6.12,4.56l-3.5,0a2.88,2.88,0,0,0-2.62-1.55,3.42,3.42,0,1,0,0,6.84,3,3,0,0,0,2.86-1.89H5.59v-2.25h7.16a6.34,6.34,0,0,1-6.33,7.1A6.37,6.37,0,0,1,0,113.51Z"/><path class="cls-1" d="M14.22,107.33h3V112h3.05v-4.65h3V119.7h-3v-4.83H17.23v4.83h-3Z"/><path class="cls-1" d="M31.2,119.93a6.42,6.42,0,1,1,6.4-6.42A6.37,6.37,0,0,1,31.2,119.93Zm0-9.8a3.39,3.39,0,1,0,3.37,3.38A3.33,3.33,0,0,0,31.2,110.13Z"/><path class="cls-1" d="M37.83,116.84c.86,0,1.3-.44,1.3-1.41v-3.87a4.11,4.11,0,0,1,4.36-4.37v3a1.21,1.21,0,0,0-1.34,1.38v3.83a4.14,4.14,0,0,1-4.32,4.44Z"/><path class="cls-1" d="M46.51,110.19H44v-2.86h8v2.86H49.53v9.51h-3Z"/><path class="cls-1" d="M57.18,107.33h3V112h3.05v-4.65h3V119.7h-3v-4.83H60.19v4.83h-3Z"/><path class="cls-1" d="M74.08,119.93a6.42,6.42,0,1,1,6.41-6.42A6.37,6.37,0,0,1,74.08,119.93Zm0-9.8a3.39,3.39,0,1,0,3.38,3.38A3.34,3.34,0,0,0,74.08,110.13Z"/><path class="cls-1" d="M80.71,116.84c.86,0,1.31-.44,1.31-1.41v-3.87a4.1,4.1,0,0,1,4.35-4.37v3A1.21,1.21,0,0,0,85,111.6v3.83a4.14,4.14,0,0,1-4.32,4.44Z"/><path class="cls-1" d="M89.4,110.19H86.92v-2.86h8v2.86H92.41v9.51h-3Z"/><path class="cls-1" d="M100.06,107.37h3V119.7h-3Z"/><path class="cls-1" d="M104.94,107.34h3l3.6,6.84v-6.84h3V119.7h-3L108,112.8v6.9h-3Z"/><path class="cls-1" d="M116,113.52a6.36,6.36,0,0,1,6.42-6.3v3a3.27,3.27,0,1,0,0,6.54v3A6.34,6.34,0,0,1,116,113.52Z"/><path class="cls-1" d="M125.16,119.84a1.74,1.74,0,1,1,1.74-1.74A1.7,1.7,0,0,1,125.16,119.84Z"/><path class="cls-2" d="M109.65,52.57c-4.57,1.93-6.77,4.41-7.93,6.37-1.28,2.16-1.16,3.44-2.71,5.42-2.35,3-5.11,3.26-7.24,4.53-6.3,3.73-2.28,13.42-7.24,22.1-4.2,7.35-13.58,11.78-22.3,11.66s-18-4.84-21.89-12.28S40.17,76.74,34.8,71.9c-3.6-3.25-7-2-9.65-6-2.23-3.47-1-6.31-3.57-9.42a11.84,11.84,0,0,0-7.31-3.81,20.43,20.43,0,0,1,5.86-12.58c7.45-7.26,17.7-5.33,18.63-5.14a24.7,24.7,0,0,1,0-6.6,24.39,24.39,0,0,1,5.35-12.2A22.46,22.46,0,0,1,61.33,7.57a22.36,22.36,0,0,1,16.88,8.28,24.43,24.43,0,0,1,5.57,12.51,24,24,0,0,1,0,6.56c.55-.22,10.11-3.81,18.35,2.36C109.56,42.84,109.65,51.63,109.65,52.57Z"/><ellipse class="cls-1" cx="54.24" cy="26.38" rx="2.56" ry="5.73"/><ellipse class="cls-1" cx="66.75" cy="26.38" rx="2.56" ry="5.73"/><path class="cls-3" d="M34.78,30c-6.07-2.58-12.07-5.39-18.18-7.53a28.33,28.33,0,0,0-4.47-1.27,6.14,6.14,0,0,0-1-.1.91.91,0,1,1-.25,0,1,1,0,0,0,.49-.51,1.26,1.26,0,0,0,.08-.28c0,.06.13.32.27.58a25.4,25.4,0,0,0,2.63,3.58c1,1.2,2.12,2.38,3.24,3.54,4.53,4.6,9.26,9.12,14.12,13.49s9.7,8.79,14.66,13.07c9.86,8.62,19.77,17.22,29.86,25.57,2.51,2.1,5.07,4.13,7.62,6.18s5.13,4,7.78,5.91a47.58,47.58,0,0,0,4,2.63,10.58,10.58,0,0,0,2,.91c.28.12.58,0,.35.17-.08.08,0,.16,0,.06a1.58,1.58,0,0,0,0-.38,9.66,9.66,0,0,0-.7-2.16c-.31-.73-.68-1.46-1.06-2.19-.74-1.46-1.57-2.88-2.39-4.32C95,88.18,96,89.46,97,90.78c.5.67,1,1.35,1.43,2.07a10.65,10.65,0,0,1,1.18,2.39,3.45,3.45,0,0,1,.13.85,1.71,1.71,0,0,1-.45,1.18,1.83,1.83,0,0,1-1.15.5,3.93,3.93,0,0,1-.86,0,11.5,11.5,0,0,1-2.62-.8,48.45,48.45,0,0,1-4.58-2.22A179.64,179.64,0,0,1,73.41,83.84c-10.74-7.75-21-16-31-24.77s-19.59-17.76-28.29-28c-1.08-1.29-2.14-2.6-3.16-4A23.42,23.42,0,0,1,8.19,22.5a6.37,6.37,0,0,1-.46-1.77,3.25,3.25,0,0,1,.19-1.49,2.73,2.73,0,0,1,1.31-1.4,3.93,3.93,0,0,1,2.17-.31,8.7,8.7,0,0,1,1.47.29,30.73,30.73,0,0,1,4.86,1.91A141.76,141.76,0,0,1,34.78,30Z"/><path class="cls-1" d="M42.12,15.12a24.39,24.39,0,0,0-5.35,12.2,8.69,8.69,0,0,1-.89.05,7.72,7.72,0,1,1,6.24-12.25Z"/><path class="cls-1" d="M94,19.66a7.71,7.71,0,0,1-7.71,7.71h-.46a24.43,24.43,0,0,0-5.57-12.51A7.71,7.71,0,0,1,94,19.66Z"/><path class="cls-3" d="M87.54,30a141.76,141.76,0,0,1,17-10.24,30.73,30.73,0,0,1,4.86-1.91,8.7,8.7,0,0,1,1.47-.29,3.93,3.93,0,0,1,2.17.31,2.73,2.73,0,0,1,1.31,1.4,3.25,3.25,0,0,1,.19,1.49,6.37,6.37,0,0,1-.46,1.77,23.42,23.42,0,0,1-2.81,4.63c-1,1.38-2.08,2.69-3.16,4-8.7,10.2-18.43,19.14-28.29,28s-20.23,17-31,24.77A179.64,179.64,0,0,1,32.22,94.72a48.45,48.45,0,0,1-4.58,2.22,11.5,11.5,0,0,1-2.62.8,3.93,3.93,0,0,1-.86,0,1.81,1.81,0,0,1-1.15-.5,1.71,1.71,0,0,1-.45-1.18,3.48,3.48,0,0,1,.12-.85,11.11,11.11,0,0,1,1.19-2.39c.45-.72.93-1.4,1.43-2.07,1-1.32,2.05-2.6,3.16-3.84-.82,1.44-1.65,2.86-2.39,4.32-.38.73-.75,1.46-1.06,2.19a9.66,9.66,0,0,0-.7,2.16,1.58,1.58,0,0,0,0,.38c0,.1.06,0,0-.06s.08-.05.36-.17a10.87,10.87,0,0,0,2-.91,47.58,47.58,0,0,0,4-2.63c2.65-1.87,5.23-3.86,7.78-5.91s5.11-4.08,7.62-6.18c10.09-8.35,20-16.95,29.86-25.57,5-4.28,9.83-8.66,14.66-13.07S100.16,32.6,104.69,28c1.12-1.16,2.22-2.34,3.24-3.54a25.4,25.4,0,0,0,2.63-3.58c.14-.26.24-.52.27-.58a1.26,1.26,0,0,0,.08.28,1,1,0,0,0,.49.51.91.91,0,1,1-.25,0,6.14,6.14,0,0,0-1,.1,28.74,28.74,0,0,0-4.48,1.27C99.61,24.58,93.61,27.39,87.54,30Z"/><ellipse class="cls-1" cx="63.59" cy="38.62" rx="2.69" ry="2.04"/><path class="cls-1" d="M81.48,28.9a13.66,13.66,0,0,1-2,5.21A12.47,12.47,0,0,1,75.32,38a14.17,14.17,0,0,1-5.48,1.83A18,18,0,0,1,64,39.69l.51-1.93a16.7,16.7,0,0,0,5.21.6,12.92,12.92,0,0,0,5.14-1.22,11.87,11.87,0,0,0,4.2-3.32A13.58,13.58,0,0,0,81.48,28.9Z"/><path class="cls-4" d="M35.15,19.66V9.06a48.69,48.69,0,0,1,51.93-.12V19.66"/></g></g></svg>